<svg xmlns="http://www.w3.org/2000/svg" xmlns:xlink="http://www.w3.org/1999/xlink" viewBox="0 0 103.99 76.12"><defs><style>.cls-1{isolation:isolate;}.cls-2{mix-blend-mode:multiply;fill:url(#radial-gradient);}.cls-3{fill:url(#radial-gradient-2);}.cls-4{fill:#fff;}.cls-5{fill:url(#radial-gradient-3);}.cls-6{mix-blend-mode:screen;fill:url(#linear-gradient);}</style><radialGradient id="radial-gradient" cx="-732.51" cy="-21939.78" r="53.26" gradientTransform="translate(767.29 2221) scale(0.98 0.1)" gradientUnits="userSpaceOnUse"><stop offset="0" stop-color="#454545"/><stop offset="0.64" stop-color="#fff"/></radialGradient><radialGradient id="radial-gradient-2" cx="43.02" cy="13.85" r="54.53" gradientUnits="userSpaceOnUse"><stop offset="0" stop-color="#fff"/><stop offset="0.32" stop-color="#fcfcfc"/><stop offset="0.57" stop-color="#f2f2f2"/><stop offset="0.81" stop-color="#e1e1e1"/><stop offset="1" stop-color="#cdcdcd"/></radialGradient><radialGradient id="radial-gradient-3" cx="52.23" cy="5.95" r="47.37" gradientUnits="userSpaceOnUse"><stop offset="0" stop-color="#c4e066"/><stop offset="0.13" stop-color="#bdda61"/><stop offset="0.32" stop-color="#aacb53"/><stop offset="0.54" stop-color="#8ab13d"/><stop offset="0.79" stop-color="#5e8e1e"/><stop offset="1" stop-color="#336b00"/></radialGradient><linearGradient id="linear-gradient" x1="52.24" y1="-2.42" x2="52.24" y2="7.98" gradientUnits="userSpaceOnUse"><stop offset="0" stop-color="#fff"/><stop offset="1"/></linearGradient></defs><g class="cls-1"><g id="图层_2" data-name="图层 2"><path class="cls-2" d="M104,70.9c0,2.88-23.28,5.22-52,5.22S0,73.78,0,70.9s23.28-5.22,52-5.22S104,68,104,70.9Z"/><path class="cls-3" d="M102.75,58.22c0,6.53-4.79,11.83-10.69,11.83H12.89c-5.91,0-10.7-5.3-10.7-11.83V12.1C2.19,5.57,7,.27,12.89.27H92.06c5.9,0,10.69,5.3,10.69,11.83Z"/><path class="cls-4" d="M92.19,2H12.57S2.19,1.15,2.19,13.15L43.26,37.69s4.56,3.41,9.12,3.41,9.12-3.41,9.12-3.41l41.07-24.54C102.57,1.15,92.19,2,92.19,2Z"/><path class="cls-5" d="M92.19,0H12.57S2.19-.82,2.19,11.18L43.26,35.72s4.56,3.41,9.12,3.41,9.12-3.41,9.12-3.41l41.07-24.54C102.57-.82,92.19,0,92.19,0Z"/><path class="cls-6" d="M90.68,1.68H13.81s-9.18-.63-9.94,8.38h96.75C99.86,1.05,90.68,1.68,90.68,1.68Z"/></g></g></svg>