<svg xmlns="http://www.w3.org/2000/svg" viewBox="0 0 61.79 58.47"><defs><style>.cls-1{fill:#d8d8d8;}</style></defs><g id="图层_2" data-name="图层 2"><path class="cls-1" d="M58.53,5,56.76,3.25A11.18,11.18,0,0,0,41,3.25L.33,43.77a1.15,1.15,0,0,0,0,1.61,1.16,1.16,0,0,0,1.62,0L42.61,4.86a8.89,8.89,0,0,1,12.54,0l1.76,1.76a8.81,8.81,0,0,1,0,12.49L21.55,54.34a6.35,6.35,0,0,1-9-9L41.73,16.31a2.6,2.6,0,0,1,3.69,0,2.6,2.6,0,0,1,0,3.67L24.2,41.13a1.14,1.14,0,1,0,1.62,1.6L47,21.59a4.84,4.84,0,0,0,0-6.89,4.89,4.89,0,0,0-6.91,0L10.94,43.77A8.63,8.63,0,0,0,23.16,56L58.53,20.71A11.09,11.09,0,0,0,58.53,5Z"/></g></svg>